<?xml version="1.0" encoding="iso-8859-1"?>
<!-- Generator: Adobe Illustrator 19.0.0, SVG Export Plug-In . SVG Version: 6.00 Build 0)  -->
<svg version="1.1" id="Capa_1" xmlns="http://www.w3.org/2000/svg" xmlns:xlink="http://www.w3.org/1999/xlink" x="0px" y="0px"
	 viewBox="0 0 512 512" style="enable-background:new 0 0 512 512;" xml:space="preserve">
<g>
	<g>
		<path d="M256,0c-68.925,0-125,56.075-125,125s56.075,125,125,125s125-56.075,125-125S324.925,0,256,0z"/>
	</g>
</g>
<g>
	<g>
		<path d="M257.6,280h-3.888c-18.637,0-37.038,2.649-54.693,7.735l57.002,88.142l56.936-88.042
			C295.106,282.683,276.479,280,257.6,280z"/>
	</g>
</g>
<g>
	<g>
		<path d="M453.716,447.961c-9.849-64.776-51.355-121.154-111.995-149.361L271,407.959V512h192.453L453.716,447.961z"/>
	</g>
</g>
<g>
	<g>
		<path d="M170.255,298.5c-60.946,28.38-102.183,85.085-111.971,149.461L48.547,512H241V407.896L170.255,298.5z"/>
	</g>
</g>
<g>
</g>
<g>
</g>
<g>
</g>
<g>
</g>
<g>
</g>
<g>
</g>
<g>
</g>
<g>
</g>
<g>
</g>
<g>
</g>
<g>
</g>
<g>
</g>
<g>
</g>
<g>
</g>
<g>
</g>
</svg>
