<svg id="Capa_1" enable-background="new 0 0 512 512" height="512" viewBox="0 0 512 512" width="512" xmlns="http://www.w3.org/2000/svg"><g><path d="m210.019 261h30.003v30.003h-30.003z"/><path d="m30.393 230.893h254.967c5.34-81.52 85.042-138.046 164.679-114.633v-20.274c0-8.285-6.716-15.001-15.001-15.001h-134.987v-45.004c0-8.285-6.716-15.001-15.001-15.001h-120.06c-8.285 0-15.001 6.716-15.001 15.001v45.004h-134.988c-8.285 0-15.001 6.716-15.001 15.001v109.046c2.368 14.642 15.093 25.861 30.393 25.861zm149.598-179.911h90.058v30.003h-90.058z"/><path d="m348.531 350.395c-31.748-18.657-55.272-50.862-61.694-89.5h-16.812v45.109c0 8.285-6.716 15.001-15.001 15.001h-60.005c-8.285 0-15.001-6.716-15.001-15.001v-45.109h-149.625c-11.068 0-21.445-2.987-30.393-8.176v196.798c0 8.285 6.716 15.001 15.001 15.001h334.103c-1.036-7.896-.365-2.983-.573-114.123z"/><path d="m483.193 169.842c-38.409-38.409-100.903-38.409-139.312 0-50.56 50.559-31.812 136.539 34.653 161.702v34.515h70.006v-34.515c66.443-25.154 85.217-111.137 34.653-161.702zm-69.656 138.117c-.001 0 .001 0 0 0-37.917 0-68.461-30.531-68.461-68.46 0-37.919 30.532-68.46 68.46-68.46 37.918 0 68.46 30.532 68.46 68.46 0 37.916-30.531 68.46-68.459 68.46z"/><path d="m378.533 456.018c0 19.301 15.703 35.003 35.003 35.003 19.301 0 35.003-15.703 35.003-35.003v-59.955h-70.006z"/></g></svg>