<svg id="Layer_1" enable-background="new 0 0 496 496" height="512" viewBox="0 0 496 496" width="512" xmlns="http://www.w3.org/2000/svg"><path d="m312.384 190c-84.36 0-153 68.64-153 153s68.64 153 153 153 153-68.64 153-153-68.64-153-153-153zm-32.88 92.29c11.72 0 21.26 9.53 21.26 21.25 0 11.729-9.54 21.27-21.26 21.27s-21.26-9.54-21.26-21.27c0-11.72 9.54-21.25 21.26-21.25zm65.76 121.42c-11.72 0-21.26-9.53-21.26-21.25 0-11.729 9.54-21.27 21.26-21.27s21.26 9.54 21.26 21.27c0 11.72-9.54 21.25-21.26 21.25zm17.89-88.85-78.91 78.909c-6.287 6.267-16.37 6.24-22.63 0-6.25-6.25-6.25-16.38 0-22.63l78.91-78.909c6.25-6.25 16.38-6.25 22.63 0s6.25 16.38 0 22.63zm-93.77-314.86h-104c-12.154 0-19.867 13.046-14.03 23.69l30.56 55.77c-21.762 12.948-28.75 40.652-16.59 62.14-53.92 18.36-95.86 64.49-107.07 122.9l-26.18 136.42c-9.466 49.369 28.376 95.08 78.57 95.08h66.639c12.042 0 17.935-14.639 9.283-23.015-102.548-99.278-54.743-271.565 82.099-305.632 12.729-3.169 14.099-21.248.779-25.754 12.159-21.485 5.175-49.191-16.59-62.14l30.56-55.77c5.846-10.659-1.894-23.689-14.03-23.689zm-40 133h-24c-9.19 0-16.34-8.91-13.28-18.54 1.81-5.71 7.29-9.46 13.28-9.46h24c5.99 0 11.47 3.75 13.28 9.46 3.06 9.63-4.09 18.54-13.28 18.54z"/></svg>